Coordinates
version=1
nRows=8
nColumns=42
inDegrees=yes

Units are S.I. units (second, meters, Newtons, ...)
If the header above contains a line with 'inDegrees', this indicates whether rotational values are in degrees (yes) or radians (no).

endheader
time	pelvis_tilt	pelvis_list	pelvis_rotation	pelvis_tx	pelvis_ty	pelvis_tz	hip_flexion_r	hip_adduction_r	hip_rotation_r	knee_angle_r	knee_adduction_r	knee_angle_r_beta	ankle_angle_r	subtalar_angle_r	mtp_angle_r	hip_flexion_l	hip_adduction_l	hip_rotation_l	knee_angle_l	knee_adduction_l	knee_angle_l_beta	ankle_angle_l	subtalar_angle_l	mtp_angle_l	lumbar_extension	lumbar_bending	lumbar_rotation	arm_flex_r	arm_add_r	arm_rot_r	elbow_flex_r	pro_sup_r	wrist_flex_r	wrist_dev_r	arm_flex_l	arm_add_l	arm_rot_l	elbow_flex_l	pro_sup_l	wrist_flex_l	wrist_dev_l
      0.37000000	      2.54174319	     -4.60369634	     -1.40448494	     -0.55339157	      0.95699041	     -0.22531022	    -16.35275146	      7.88198598	      1.40162545	      6.31517741	     -1.02907295	      0.11022064	     15.08951340	     -2.73676974	     -8.01281448	     22.97566283	     -6.18688075	    -12.91596978	      7.79063283	      0.48042609	      0.13597219	      3.02226536	      4.61971899	     -8.01281448	    -15.43525551	      5.07685872	      8.80646357	      0.73026185	    -12.22841709	      2.50003366	     45.50213872	     90.00000001	      0.00000000	      0.00000000	     -3.98646709	     -9.54224708	     -2.56314139	     33.95118415	     90.00000001	      0.00000000	      0.00000000
      0.38000000	      2.67740488	     -4.64792989	     -1.59893585	     -0.53877057	      0.95420409	     -0.22490473	    -17.46310547	      7.81603822	      1.46804238	      6.39119002	     -0.95241287	      0.11154731	     15.43066733	     -2.63216457	     -7.99036050	     22.90689865	     -6.18553335	    -12.95563232	      6.53163698	      0.52327261	      0.11399857	      3.19215206	      6.27728739	     -7.99036050	    -15.57839179	      4.91433439	      9.11404883	      0.95975330	    -12.18849073	      2.44620978	     45.93771371	     90.00000001	      0.00000000	      0.00000000	     -3.95688994	     -9.36456809	     -3.74094760	     32.46279780	     90.00000001	      0.00000000	      0.00000000
      0.39000000	      2.51072186	     -4.78527931	     -1.74733450	     -0.52429188	      0.95110594	     -0.22428724	    -18.12036464	      7.96258245	      1.51240450	      6.72065824	     -1.03670627	      0.11729761	     15.81586879	     -2.60428373	     -7.98389474	     23.24972967	     -6.30181316	    -12.55762458	      5.88793764	      0.59470346	      0.10276390	      3.20357068	      7.10299743	     -7.98389474	    -15.39508580	      4.83242045	      9.36782015	      1.17896805	    -12.09130058	      2.44961283	     46.17357294	     90.00000001	      0.00000000	      0.00000000	     -4.00901811	     -9.42380228	     -3.99882190	     31.08241347	     90.00000001	      0.00000000	      0.00000000
      0.40000000	      2.55556709	     -4.67395028	     -2.00084186	     -0.50952162	      0.94859184	     -0.22405485	    -18.91862321	      7.66057667	      1.56249995	      7.22621518	     -0.90512766	      0.12612125	     15.92824356	     -2.43915195	     -7.96900891	     23.29492828	     -6.09042166	    -12.43125350	      5.65802496	      0.44488270	      0.09875116	      3.22642247	      7.68216238	     -7.96900891	    -15.44614287	      4.48273492	      9.68780263	      1.35563703	    -11.93872663	      2.16897903	     46.42718573	     90.00000001	      0.00000000	      0.00000000	     -3.85837910	     -9.21861922	     -5.21791906	     29.43168010	     90.00000001	      0.00000000	      0.00000000
      0.41000000	      2.51605198	     -4.57437227	     -2.16685359	     -0.49466850	      0.94607764	     -0.22348807	    -19.56660657	      7.57656751	      1.66913281	      7.87329011	     -1.11412819	      0.13741484	     16.08162237	     -2.43260746	     -7.96418434	     23.53859059	     -5.92313138	    -12.03536936	      6.11251093	      0.29972438	      0.10668344	      3.20544981	      7.71156802	     -7.96418434	    -15.39670546	      4.10043210	      9.78390917	      1.58754135	    -11.71907685	      2.17934277	     46.42729963	     90.00000001	      0.00000000	      0.00000000	     -4.04532016	     -9.37523461	     -5.45486877	     28.37881198	     90.00000001	      0.00000000	      0.00000000
      0.42000000	      2.56598328	     -4.33496608	     -2.35199158	     -0.47960281	      0.94402980	     -0.22330155	    -20.17907742	      7.21351498	      1.71941648	      8.76360603	     -1.13877668	      0.15295378	     16.01982868	     -2.48638098	     -7.95873498	     23.65516075	     -5.53725826	    -11.71265996	      6.94818206	      0.01423861	      0.12126865	      3.09589391	      7.42809231	     -7.95873498	    -15.42418275	      3.58643141	      9.90745925	      1.78043196	    -11.48707350	      2.04467305	     46.28673977	     90.00000001	      0.00000000	      0.00000000	     -3.99240820	     -9.40286290	     -5.89403654	     26.86531446	     90.00000001	      0.00000000	      0.00000000
      0.43000000	      2.62775152	     -3.75135377	     -2.70663331	     -0.46405973	      0.94242230	     -0.22324993	    -20.56008437	      6.33764079	      1.35549420	     10.09815136	     -1.06543179	      0.17624599	     16.03487454	     -2.16761098	     -7.93036954	     23.56508173	     -4.78456299	    -11.48742103	      7.85309343	     -0.35779182	      0.13706234	      2.49683846	      6.39782299	     -7.93036954	    -15.40434537	      2.65262456	     10.05991063	      1.88088115	    -11.13428148	      1.70488480	     46.03734157	     90.00000001	      0.00000000	      0.00000000	     -3.69202587	     -9.05491994	     -8.75464319	     25.04339668	     90.00000001	      0.00000000	      0.00000000
      0.44000000	      2.70854909	     -3.30765705	     -2.84121436	     -0.44845004	      0.94108816	     -0.22321622	    -20.93258002	      5.76850997	      1.29181408	     11.49147238	     -1.12661894	      0.20056403	     15.46983854	     -2.39601798	     -7.92204733	     23.65093230	     -4.15972676	    -11.29616653	      9.38766716	     -0.71736651	      0.16384570	      2.05360705	      5.61839169	     -7.92204733	    -15.41025921	      1.89042303	     10.00713907	      1.96817757	    -10.78162251	      1.54201419	     45.71743391	     90.00000001	      0.00000000	      0.00000000	     -3.73519529	     -9.17495938	     -9.10520498	     23.76900201	     90.00000001	      0.00000000	      0.00000000
